# xmcd CD database file
#
# Track frame offsets:
#	150
#	12765
#	29511
#	43803
#	57919
#	75552
#	89340
#	107067
#	122301
#	136819
#	151392
#
# Disc length: 2161 seconds
#
# Revision: 0
# Processed by: cddbd v1.5.1PL0 Copyright (c) Steve Scherf et al.
# Submitted via: CDex 1.50beta10
#
DISCID=80086f0b
DTITLE=Various Artist - TIMA 2005-01
DYEAR=2005
DGENRE=Country
TTITLE0=Al Brumley and Tommy Overstreet/Gospel Songs And Old Time Recipes
TTITLE1=Joe Paul Nichols/Rodeo Preacher
TTITLE2=Otha Geeslin/Wouldn't It Be Wonderful
TTITLE3=Joe Price/It's All Over But The Shoutin'
TTITLE4=Kimberly Smith/Jesus Means More To Me
TTITLE5=Jerry Davidson/The Song Writer's Gospel
TTITLE6=Roland Wright and 2nd Chance/Mockingbirds, Bluebonnets And You Lord
TTITLE7=Glorya Wilson/Oh Lord I Need A Savior Too
TTITLE8=James Otwell/Jesus Talk To My Heart
TTITLE9=Country Johnny Mathis/Only You Lord
TTITLE10=Lawton Williams/World
EXTD=YEAR: 2005
EXTT0=
EXTT1=
EXTT2=
EXTT3=
EXTT4=
EXTT5=
EXTT6=
EXTT7=
EXTT8=
EXTT9=
EXTT10=
PLAYORDER=
